# xmcd
#
# Track frame offsets:
#	150
#	11853
#	31866
#	46969
#	61545
#	83277
#	97264
#	113895
#	126889
#	139803
#	150580
#	161534
#
# Disc length: 2483
#
# Revision: 1
# Processed by: cddbd v1.5.1PL0 Copyright (c) Steve Scherf et al.
# Submitted via: CDex 1.50beta10
# Normalized: r0:TDELIM( - ),TSWAP
#
DISCID=8e09b10c
DTITLE=Just Jazz - Jazz Giants
DYEAR=1900
DGENRE=Jazz
TTITLE0=Louis Armstrong - Heebie Jeebies
TTITLE1=Duke Ellington - Satin Doll
TTITLE2=Benny Goodman - St. Louis Blues
TTITLE3=Billie Holiday - Fine and Mellow
TTITLE4=Sonny Rollins - Like Someone in Live
TTITLE5=Thelonius Monk - Epistrophy
TTITLE6=Errol garner - Stompin' at the Savoy
TTITLE7=Rosemary Clooney - You Make Me Feel So Young
TTITLE8=Lester Young - I Want a Little Girl
TTITLE9=James P. Johnson - Steeple Chase Rag
TTITLE10=Eddie Thompson - Watch for The Light
TTITLE11=Ben Webster - Once in a While
EXTD=
EXTT0=
EXTT1=
EXTT2=
EXTT3=
EXTT4=
EXTT5=
EXTT6=
EXTT7=
EXTT8=
EXTT9=
EXTT10=
EXTT11=
PLAYORDER=
